<svg width="138" height="80" viewBox="0 0 138 80" fill="none" xmlns="http://www.w3.org/2000/svg">
<path d="M1.37931 75.4491H2.26208V73.2974H3.61381V78.8974H2.26208V76.525H1.37931V78.8974H0.0275803V73.2974H1.37931V75.4491Z" fill="white"/>
<path d="M4.27589 73.269H7.42074V74.3173H5.62762V75.4208H7.22763V76.4691H5.62762V77.7932H7.42074V78.8415H4.27589V73.269Z" fill="white"/>
<path d="M11.0346 73.2688V74.3171H9.24145V78.8412H7.88972V73.2412H11.0346" fill="white"/>
<path d="M12.6346 74.6488V77.4902C12.6346 77.8213 12.8553 77.9868 13.1035 77.9868C13.3242 77.9868 13.5725 77.8213 13.5725 77.4902V74.6488C13.5725 74.3178 13.3242 74.1799 13.1035 74.1799C12.8553 74.1799 12.6346 74.3178 12.6346 74.6488ZM14.9242 74.7316V77.242C14.9242 78.3454 14.3725 79.0075 13.1035 79.0075C11.8622 79.0075 11.2828 78.373 11.2828 77.242V74.7316C11.2828 73.8488 11.8346 73.1592 13.1035 73.1592C14.3725 73.1592 14.9242 73.8488 14.9242 74.7316Z" fill="white"/>
<path d="M19.1174 76.6624V77.1865C19.1174 78.4555 18.538 79.0073 17.2967 79.0073C16.0553 79.0073 15.476 78.4555 15.476 77.1865V74.759C15.476 73.8762 16.0277 73.1865 17.2967 73.1865C18.5656 73.1865 19.1174 73.9038 19.1174 74.7865V75.1727H17.7656V74.6762C17.7656 74.3727 17.4898 74.2348 17.2691 74.2348C17.0484 74.2348 16.8001 74.3727 16.8001 74.6486V77.4348C16.8001 77.8486 16.9932 78.0141 17.2691 78.0141C17.5449 78.0141 17.7656 77.8486 17.7656 77.4348V76.69L19.1174 76.6624Z" fill="white"/>
<path d="M20.8553 73.269L21.3519 75.6966C21.3795 75.8897 21.3795 76.276 21.4347 76.8553H21.4622C21.5174 76.276 21.545 75.9173 21.6002 75.6966L22.1243 73.269H23.5312L22.3174 77.5725C22.014 78.6484 21.6829 78.9243 20.745 78.9243C20.4967 78.9243 20.1657 78.8691 20.0553 78.7863V77.8484C20.1105 77.876 20.2484 77.876 20.3864 77.876C20.4967 77.876 20.6347 77.876 20.7174 77.6829L19.4484 73.269H20.8553Z" fill="white"/>
<path d="M26.2898 74.3447H25.3795V75.3929C25.3795 76.4688 25.2967 77.1861 24.9381 77.8206H26.2622V74.3447H26.2898ZM27.6416 73.2688V77.793H27.9174V79.9999H26.6209V78.8412H24.6898V79.9999H23.3932V77.793H23.5863C24.0001 77.1585 24.1105 76.5792 24.1105 74.8412V73.2412H27.6416" fill="white"/>
<path d="M30.3726 76.7449L30.014 74.2897L29.6553 76.7449H30.3726ZM30.8416 73.269L32.0829 78.8691H30.7588L30.5657 77.738H29.545L29.3795 78.8691H28.0278L29.2416 73.269H30.8416Z" fill="white"/>
<path d="M33.7658 75.6966H34.0141C34.3451 75.6966 34.6762 75.5311 34.6762 74.9794C34.6762 74.4277 34.4003 74.2897 33.9865 74.2897H33.7658V75.6966ZM33.7658 78.8691H32.4141V73.269H34.3727C35.1451 73.269 36.0003 73.5449 36.0003 74.9794C36.0003 76.3587 35.1451 76.6898 34.3727 76.6898H33.7658V78.8691Z" fill="white"/>
<path d="M40.2209 76.6624V77.1865C40.2209 78.4555 39.6416 79.0073 38.4002 79.0073C37.1589 79.0073 36.5795 78.4555 36.5795 77.1865V74.759C36.5795 73.8762 37.1313 73.1865 38.4002 73.1865C39.6692 73.1865 40.2209 73.9038 40.2209 74.7865V75.1727H38.8692V74.6762C38.8692 74.3727 38.5934 74.2348 38.3727 74.2348C38.152 74.2348 37.9037 74.3727 37.9037 74.6486V77.4348C37.9037 77.8486 38.0692 78.0141 38.3727 78.0141C38.6485 78.0141 38.8692 77.8486 38.8692 77.4348V76.69L40.2209 76.6624Z" fill="white"/>
<path d="M42.8969 78.8698H41.6555V74.3456H40.6072V73.2974H43.89V74.3456H42.8969V78.8698Z" fill="white"/>
<path d="M45.6279 77.876H45.9313C46.4279 77.876 46.5934 77.6829 46.5934 77.1863C46.5934 76.7173 46.4555 76.4691 45.9589 76.4691H45.6279V77.876ZM45.6279 75.4484H46.0141C46.4003 75.4484 46.5382 75.2553 46.5382 74.8139C46.5382 74.4828 46.4003 74.2897 46.0141 74.2897H45.6279V75.4484ZM44.3037 73.269H46.4555C47.1175 73.269 47.8348 73.6553 47.8348 74.676C47.8348 75.4484 47.3658 75.807 47.0624 75.8622C47.5865 76.0829 47.89 76.4415 47.89 77.2139C47.89 78.2622 47.3382 78.8691 46.1796 78.8691H44.3037V73.269Z" fill="white"/>
<path d="M48.5245 73.269H51.6693V74.3173H49.8762V75.4208H51.4762V76.4691H49.8762V77.7932H51.6693V78.8415H48.5245V73.269Z" fill="white"/>
<path d="M53.4901 75.4491H54.3728V73.2974H55.7246V78.8974H54.3728V76.525H53.4901V78.8974H52.1384V73.2974H53.4901V75.4491Z" fill="white"/>
<path d="M57.766 75.4491H58.6487V73.2974H60.0005V78.8974H58.6487V76.525H57.766V78.8974H56.4142V73.2974H57.766V75.4491Z" fill="white"/>
<path d="M66.1522 78.8691H64.8004V73.269H66.1522V78.8691ZM62.0142 77.876H62.2349C62.6211 77.876 62.897 77.738 62.897 77.1863C62.897 76.6346 62.5935 76.4415 62.2625 76.4415H62.0142V77.876ZM62.0142 75.4484H62.6211C63.4211 75.4484 64.2487 75.807 64.2487 77.1863C64.2487 78.6208 63.3935 78.8967 62.6211 78.8967H60.6625V73.2966H62.0142V75.4484Z" fill="white"/>
<path d="M67.9453 71.9463C67.9729 72.3049 68.3591 72.3325 68.635 72.3325C68.966 72.3325 69.1867 72.2773 69.297 71.9463H69.7936C69.7936 72.6084 69.2143 72.9394 68.6074 72.9394C67.9177 72.9394 67.4763 72.6635 67.4212 71.9463H67.9453ZM68.1384 73.2704V74.6498C68.1384 75.2567 67.9729 76.167 67.9453 76.7739L69.0763 73.2704H70.3729V78.8705H69.0763V77.5739C69.0763 76.967 69.2694 76.0567 69.3246 75.4774L68.166 78.8705H66.8694V73.2704H68.1384Z" fill="white"/>
<path d="M76.5798 73.269V78.8691H75.2281V74.3449H74.3453V78.8691H72.9936V73.269H76.5798Z" fill="white"/>
<path d="M77.2695 73.269H80.4144V74.3173H78.5937V75.4208H80.1937V76.4691H78.5937V77.7932H80.3868V78.8415H77.2419V73.269" fill="white"/>
<path d="M82.2351 75.4491H83.1178V73.2974H84.4696V78.8974H83.1178V76.525H82.2351V78.8974H80.8833V73.2974H82.2351V75.4491Z" fill="white"/>
<path d="M88.7455 76.6624V77.1865C88.7455 78.4555 88.1661 79.0073 86.9248 79.0073C85.6834 79.0073 85.1041 78.4555 85.1041 77.1865V74.759C85.1041 73.8762 85.6558 73.1865 86.9248 73.1865C88.1937 73.1865 88.7455 73.9038 88.7455 74.7865V75.1727H87.3937V74.6762C87.3937 74.3727 87.1179 74.2348 86.8972 74.2348C86.6765 74.2348 86.4282 74.3727 86.4282 74.6486V77.4348C86.4282 77.8486 86.5937 78.0141 86.8972 78.0141C87.173 78.0141 87.3937 77.8486 87.3937 77.4348V76.69L88.7455 76.6624Z" fill="white"/>
<path d="M90.6489 73.269V74.6484C90.6489 75.2553 90.4834 76.1656 90.4558 76.7725L91.5868 73.269H92.8834V78.8691H91.5868V77.5725C91.5868 76.9656 91.7799 76.0553 91.8351 75.476L90.6765 78.8691H89.3523V73.269H90.6489Z" fill="white"/>
<path d="M94.842 74.6488V77.4902C94.842 77.8213 95.0627 77.9868 95.311 77.9868C95.5317 77.9868 95.78 77.8213 95.78 77.4902V74.6488C95.78 74.3178 95.5317 74.1799 95.311 74.1799C95.0903 74.1799 94.842 74.3178 94.842 74.6488ZM97.1317 74.7316V77.242C97.1317 78.3454 96.58 79.0075 95.311 79.0075C94.0696 79.0075 93.4903 78.373 93.4903 77.242V74.7316C93.4903 73.8488 94.042 73.1592 95.311 73.1592C96.58 73.1592 97.1317 73.8488 97.1317 74.7316Z" fill="white"/>
<path d="M99.1179 75.4491H100.001V73.2974H101.352V78.8974H100.001V76.525H99.1179V78.8974H97.7662V73.2974H99.1179V75.4491Z" fill="white"/>
<path d="M103.366 75.4491H104.249V73.2974H105.601V78.8974H104.249V76.525H103.366V78.8974H102.014V73.2974H103.366V75.4491Z" fill="white"/>
<path d="M111.78 78.8691H110.428V73.269H111.78V78.8691ZM107.642 77.876H107.863C108.249 77.876 108.525 77.738 108.525 77.1863C108.525 76.6346 108.221 76.4415 107.89 76.4415H107.642V77.876ZM107.642 75.4484H108.249C109.049 75.4484 109.877 75.807 109.877 77.1863C109.877 78.6208 109.021 78.8967 108.249 78.8967H106.29V73.2966H107.642V75.4484Z" fill="white"/>
<path d="M113.546 71.9463C113.573 72.3049 113.959 72.3325 114.235 72.3325C114.566 72.3325 114.787 72.2773 114.897 71.9463H115.394C115.394 72.6084 114.815 72.9394 114.208 72.9394C113.518 72.9394 113.077 72.6635 113.021 71.9463H113.546ZM113.739 73.2704V74.6498C113.739 75.2567 113.573 76.167 113.546 76.7739L114.677 73.2704H115.973V78.8705H114.677V77.5739C114.677 76.967 114.87 76.0567 114.925 75.4774L113.766 78.8705H112.47V73.2704H113.739Z" fill="white"/>
<path d="M121.959 77.2691H122.235C122.704 77.2691 122.897 76.8553 122.897 76.0553C122.897 75.2553 122.732 74.8415 122.263 74.8415H121.987L121.959 77.2691ZM120.663 74.8139H120.387C119.918 74.8139 119.725 75.2553 119.725 76.0277C119.725 76.8277 119.918 77.2415 120.387 77.2415H120.663V74.8139ZM121.959 73.269V73.7932H122.346C123.366 73.7932 124.111 74.4553 124.111 76.0277C124.111 77.6277 123.366 78.2622 122.346 78.2622H121.959V78.8691H120.663V78.2622H120.277C119.256 78.2622 118.539 77.6277 118.539 76.0277C118.539 74.4553 119.256 73.7932 120.277 73.7932H120.663V73.269H121.959Z" fill="white"/>
<path d="M126.042 74.6488V77.4902C126.042 77.8213 126.263 77.9868 126.511 77.9868C126.732 77.9868 126.98 77.8213 126.98 77.4902V74.6488C126.98 74.3178 126.732 74.1799 126.511 74.1799C126.263 74.1799 126.042 74.3178 126.042 74.6488ZM128.332 74.7316V77.242C128.332 78.3454 127.78 79.0075 126.511 79.0075C125.27 79.0075 124.691 78.373 124.691 77.242V74.7316C124.691 73.8488 125.242 73.1592 126.511 73.1592C127.78 73.1592 128.332 73.8488 128.332 74.7316Z" fill="white"/>
<path d="M130.291 75.4491H131.173V73.2974H132.525V78.8974H131.173V76.525H130.291V78.8974H128.939V73.2974H130.291V75.4491Z" fill="white"/>
<path d="M135.918 74.3447H135.035V75.3929C135.035 76.4688 134.953 77.1861 134.594 77.8206H135.918V74.3447ZM137.242 73.2688V77.793H137.518V79.9999H136.222V78.8412H134.291V79.9999H132.994V77.793H133.187C133.601 77.1585 133.711 76.5792 133.711 74.8412V73.2412H137.242" fill="white"/>
<path d="M37.021 22.8967C36.9658 25.2967 36.6899 27.8347 36.3037 29.3243C36.4417 26.7312 36.1106 23.0346 35.5313 20.1656C34.9244 17.2967 33.2416 12.4966 31.8899 10.2897C30.6485 12.4139 29.1037 16.5518 28.3037 20.1381C27.5037 23.7519 27.4761 28.0829 27.4761 29.4071C27.2554 28.3036 26.7312 24.3864 26.8692 20.4415C27.0071 17.1863 27.7519 13.8484 28.1657 12.3035C29.7658 7.17246 31.5589 3.88968 31.8899 3.36554C32.2209 3.88968 34.483 7.91729 35.6692 12.1932C36.8555 16.4139 37.0762 20.4967 37.021 22.8967ZM31.9175 41.2416C31.2002 39.9175 30.1244 37.3795 30.014 33.4623C29.9864 29.6829 31.5037 26.4553 31.9451 25.7657C32.3313 26.4553 33.6279 29.2691 33.7934 33.1312C33.9037 36.9106 32.6623 39.8899 31.9175 41.2416ZM37.4348 12.2208C36.0003 5.93107 32.414 0.827591 31.9175 0C31.1451 1.18621 28.2761 5.68279 26.814 10.7035C25.214 16.276 24.9933 21.2415 25.545 26.1243C26.0968 31.0071 28.1382 36.0002 28.1382 36.0002C29.2416 38.6209 30.8692 41.4623 31.9451 42.8416C33.5175 40.8003 37.1037 34.7312 38.2348 26.814C38.8417 22.3726 38.8693 18.5105 37.4348 12.2208Z" fill="white"/>
<path d="M34.3451 44.2768H23.4208V51.5872L23.4484 51.5596C26.014 48.9941 30.1795 48.9941 32.7726 51.5596C35.3382 54.1251 35.3382 58.2907 32.7726 60.8838L32.745 60.9114L32.7175 60.939C30.1519 63.4769 26.814 64.7459 23.4484 64.7459C20.0829 64.7459 16.7174 63.4493 14.1518 60.8838C9.62765 56.3872 9.07592 49.3803 12.5242 44.2768C12.9932 43.5871 13.5173 42.9251 14.1242 42.3182C16.6898 39.7526 20.0553 38.4561 23.4208 38.4561V20.856C10.4828 20.856 0 31.3388 0 44.2768C0 57.2148 10.4828 67.6976 23.4208 67.6976C30.1519 67.6976 36.2485 64.8562 40.5244 60.2769V44.2768H34.3451Z" fill="white"/>
<path d="M43.6141 44.2495H52.5245V46.815H48.2762V67.6152H43.6141V44.2495Z" fill="white"/>
<path d="M59.7797 58.8427L58.9797 47.1185H58.7038L57.9038 58.8427H59.7797ZM55.1728 44.2495H62.5108L64.9384 67.6152H60.3866L59.9452 61.4082H57.7383L57.2969 67.6152H52.7176L55.1728 44.2495Z" fill="white"/>
<path d="M70.9522 59.4499V64.3051C70.9522 64.912 71.4212 65.0775 71.6971 65.0775C72.1384 65.0775 72.4419 64.7189 72.4419 64.3051V58.4292C72.4419 57.6843 72.304 56.8843 70.566 56.8843H68.6625V54.3188H70.6212C71.9453 54.3188 72.4143 54.0153 72.4143 52.5809V47.6153C72.4143 47.2015 72.1108 46.8429 71.6695 46.8429C71.3936 46.8429 70.9246 47.0084 70.9246 47.6153V51.7533H66.2625V48.4429C66.2625 46.8153 66.4556 44.2773 69.7384 44.2773H73.6005C76.8833 44.2773 77.0764 46.8153 77.0764 48.4429V52.1946C77.0764 54.7326 75.3109 55.4222 73.904 55.3671V55.5878C77.0488 55.5326 77.0764 57.9326 77.0764 58.7602V63.4499C77.0764 65.0775 76.8833 67.6154 73.6005 67.6154H69.7384C66.4556 67.6154 66.2625 65.0775 66.2625 63.4499V59.4499H70.9522Z" fill="white"/>
<path d="M90.7593 62.7329C91.2558 62.7329 91.6145 62.2915 91.6145 61.5742V49.1879C91.6145 48.4431 91.2558 48.0293 90.7593 48.0293H90.1524V62.7604H90.7593V62.7329ZM85.4627 48.0017H84.8558C84.0006 48.0017 84.0006 48.9397 84.0006 49.1604V61.5466C84.0006 61.7673 84.0006 62.7053 84.8558 62.7053H85.4627V48.0017ZM85.4627 65.2984H82.7868C79.504 65.2984 79.3109 62.7604 79.3109 61.1328V49.6017C79.3109 47.9741 79.504 45.4362 82.7868 45.4362H85.4627V43.8086H90.1248V45.4362H92.8007C96.0835 45.4362 96.2766 47.9741 96.2766 49.6017V61.1328C96.2766 62.7604 96.0835 65.2984 92.8007 65.2984H90.1248V67.6432H85.4627V65.2984Z" fill="white"/>
<path d="M104.69 47.5875C104.69 47.1737 104.387 46.815 103.946 46.815C103.67 46.815 103.201 46.9806 103.201 47.5875V64.2772C103.201 64.8841 103.67 65.0496 103.946 65.0496C104.387 65.0496 104.69 64.691 104.69 64.2772V47.5875ZM98.5386 48.4151C98.5386 46.7875 98.7317 44.2495 102.014 44.2495H105.877C109.159 44.2495 109.352 46.7875 109.352 48.4151V63.4496C109.352 65.0772 109.159 67.6152 105.877 67.6152H102.014C98.7317 67.6152 98.5386 65.0772 98.5386 63.4496V48.4151Z" fill="white"/>
<path d="M111.918 44.2495H116.608V54.0703H118.07V44.2495H122.732V67.6152H118.07V56.6358H116.608V67.6152H111.918V44.2495Z" fill="white"/>
<path d="M130.456 63.2016C130.456 64.1395 130.263 64.6637 129.822 65.0775H131.918V46.8429H130.456V63.2016ZM136.608 65.0499H137.546V69.7948H133.325V67.643H128.415V69.7948H124.194V65.0775H124.415C125.684 65.0775 125.739 63.6154 125.739 62.7326V44.2773H136.553V65.0499" fill="white"/>
</svg>
